<?xml version="1.0" encoding="utf-8"?>
<!-- Svg Vector Icons : http://www.onlinewebfonts.com/icon -->
<!DOCTYPE svg PUBLIC "-//W3C//DTD SVG 1.1//EN" "http://www.w3.org/Graphics/SVG/1.1/DTD/svg11.dtd">
<svg version="1.1" xmlns="http://www.w3.org/2000/svg" xmlns:xlink="http://www.w3.org/1999/xlink" x="0px" y="0px"
	viewBox="0 0 1000 1000" enable-background="new 0 0 1000 1000" xml:space="preserve">
	<metadata> Svg Vector Icons : http://www.onlinewebfonts.com/icon </metadata>
	<g>
		<path fill="#ed3833"
			d="M224.1,705.3c90.2,67.1,180.3,88.2,279.8,88.2c100,0,207.8-39.7,275.4-96.5C865,743.5,941,848.9,942.5,950.8H59C71.3,829.8,155.5,742.6,224.1,705.3L224.1,705.3z M773.4,651.9c-72,66.2-168.6,106.3-274.9,106.3S295.7,718,223.6,652.4C94.8,717.1,10,832.7,10,990h980C990,832.7,903.8,716.6,773.4,651.9L773.4,651.9z M180,508.8V259.4l-10.8,0.5C226.1,136.9,352,51.6,498.5,51.6c146,0,272,85.3,328.8,208.3l-10.3-0.5v249.4c70.1,0,127.4-55.9,127.4-124.5c0-47-26.5-87.7-65.7-109.3C824.4,120.7,674.9,10,498.5,10c-176.4,0-325.9,110.7-380.7,265.1c-39.2,21.6-65.2,62.2-65.2,109.3C52.6,453,109.5,508.8,180,508.8L180,508.8L180,508.8z M498,629.8c-127.4,0-230.3-100.9-230.3-225.4C267.7,280,377,179.1,498,179.1c126.9,0,229.8,100.9,229.8,225.4C727.8,528.9,624.9,629.8,498,629.8L498,629.8z M498.5,135c-152.4,0-275.9,121-275.9,270c0,149.4,123.5,270.5,275.9,270.5c151.9,0,275.4-121,275.4-270.5C773.9,256,650.4,135,498.5,135L498.5,135z" />
	</g>
</svg>